<?xml version="1.0" encoding="UTF-8"?>
<svg version="1.1" xmlns="http://www.w3.org/2000/svg" width="1024" height="1024">
<path d="M0 0 C1.88229278 -0.00872064 1.88229278 -0.00872064 3.80261168 -0.01761746 C7.2755682 -0.0331386 10.74807764 -0.02390365 14.22102656 -0.01050565 C18.00314862 -0.00033531 21.78520351 -0.01340778 25.567316 -0.02347898 C32.19259432 -0.0379139 38.81774223 -0.03749483 45.44302654 -0.02729034 C55.29499732 -0.01215725 65.14685812 -0.01989696 74.99882816 -0.03212357 C92.59434965 -0.05318734 110.18981305 -0.05136071 127.78534007 -0.03980792 C143.18279587 -0.02974788 158.58023038 -0.02711788 173.97768879 -0.0318985 C175.5093844 -0.03235681 175.5093844 -0.03235681 177.07202335 -0.03282438 C181.21705616 -0.03406972 185.36208896 -0.03534332 189.50712175 -0.03666343 C228.39394285 -0.04890062 267.28072695 -0.03780353 306.16754234 -0.01627585 C340.7223101 0.00270814 375.27701891 0.00100701 409.83178616 -0.01811981 C448.64874264 -0.039534 487.46566643 -0.04803421 526.282628 -0.03567076 C530.41982233 -0.03438787 534.55701666 -0.03313651 538.69421101 -0.0318985 C540.22225087 -0.03142403 540.22225087 -0.03142403 541.78116023 -0.03093999 C557.17029347 -0.02638844 572.55940309 -0.03171425 587.94853306 -0.04181671 C605.44436974 -0.05324485 622.94013922 -0.05041336 640.43596751 -0.02869374 C650.23002596 -0.01693659 660.02393891 -0.01619911 669.81799363 -0.03127843 C676.35758232 -0.04023744 682.8970542 -0.03468487 689.43662556 -0.01725936 C693.16425662 -0.00773152 696.89159829 -0.00451667 700.61922038 -0.01888329 C704.6343635 -0.0342004 708.64879629 -0.01862363 712.66392517 0 C713.82143051 -0.00936466 714.97893585 -0.01872933 716.1715171 -0.02837777 C726.05713071 0.06366587 733.21511445 2.76805754 740.47607327 9.50727081 C747.59700917 17.43493584 748.41912248 25.33321121 748.40326309 35.55200386 C748.40561532 36.57763197 748.40796755 37.60326009 748.41039106 38.65996784 C748.41708219 42.11889586 748.4166228 45.57778632 748.41621304 49.03672028 C748.41951158 51.53282554 748.42323713 54.02893026 748.42735451 56.52503431 C748.43633077 62.67997747 748.44060231 68.83490939 748.44287348 74.9898582 C748.44583592 82.36114795 748.45453354 89.73242815 748.46328776 97.10371288 C748.48413088 114.92039102 748.49460153 132.73707081 748.50341737 150.55375829 C748.50762384 158.98172624 748.51284581 167.40969348 748.5181019 175.83766084 C748.53599147 204.68572328 748.55098787 233.53378594 748.55842209 262.3818531 C748.55889685 264.19289314 748.55937273 266.00393317 748.55984975 267.8149732 C748.56020431 269.16214449 748.56020431 269.16214449 748.56056604 270.53653136 C748.56176724 275.08683644 748.56298269 279.63714152 748.56420803 284.18744659 C748.56444818 285.09046849 748.56468833 285.99349038 748.56493576 286.92387657 C748.57282967 316.20568965 748.59626373 345.48746225 748.62876397 374.76925765 C748.66305993 405.72543055 748.68277298 436.68157975 748.68606633 467.63777196 C748.68648387 471.03588511 748.68696343 474.43399823 748.68748951 477.83211136 C748.6876127 478.66882639 748.68773589 479.50554143 748.68786282 480.36761147 C748.69019505 493.83381841 748.70585623 507.29997832 748.72633136 520.7661685 C748.74658475 534.30123001 748.75206894 547.83623502 748.74256072 561.37130888 C748.73734398 569.41195481 748.74323136 577.45241266 748.76509539 585.49303153 C748.78018949 591.49786339 748.77436586 597.50248371 748.76042487 603.50732629 C748.75803891 605.93602725 748.76242328 608.36474624 748.77425352 610.79341955 C748.78934372 614.09582761 748.77971877 617.39729346 748.76402664 620.69967842 C748.77424885 621.64158537 748.78447106 622.58349232 748.79500303 623.55394191 C748.70412654 632.32262862 746.42399949 641.46331492 740.20060017 647.95088313 C731.93988528 654.59039665 723.59495883 656.38408099 713.24792957 656.2556181 C711.98599451 656.26403914 710.72405944 656.27246019 709.42388391 656.28113642 C705.94021092 656.30353616 702.45755384 656.28893487 698.97390882 656.26796853 C695.17686522 656.25177813 691.37996244 656.27054575 687.58293307 656.28476268 C680.93451731 656.3048576 674.28639914 656.30273229 667.63797855 656.28588867 C657.75162457 656.26091042 647.86550961 656.27032031 637.97914798 656.2864722 C620.32157532 656.31418284 602.6641393 656.3077493 585.00656448 656.28695718 C569.55537463 656.2688726 554.10423304 656.26236539 538.65303326 656.26732063 C537.115523 656.26779041 537.115523 656.26779041 535.54695192 656.26826968 C531.38611213 656.26955595 527.22527236 656.27089516 523.06443261 656.27231455 C484.03671306 656.28545522 445.00907813 656.26442129 405.98137737 656.2274973 C371.3054234 656.19488638 336.62957532 656.19035471 301.95361233 656.21015167 C293.07301433 656.21519451 284.19241632 656.22019908 275.31181812 656.22489452 C273.67187104 656.2257618 273.67187104 656.2257618 271.99879372 656.22664659 C243.02429376 656.24150912 214.049801 656.23322723 185.07530272 656.21782905 C181.95788103 656.21619971 178.84045934 656.21458147 175.72303764 656.21297903 C173.65502112 656.21191552 171.58700462 656.21083582 169.51898812 656.20973983 C154.07589332 656.20180512 138.63283118 656.20579841 123.18973827 656.21540642 C105.63247585 656.22622752 88.07532258 656.21896532 70.51808213 656.18795063 C60.69087293 656.1710819 50.8638867 656.16792628 41.03667577 656.18453151 C34.4737714 656.19422939 27.91105309 656.18576117 21.3481833 656.16246863 C17.60805518 656.14969698 13.86837485 656.1447754 10.12825374 656.16185316 C6.09794518 656.18005574 2.06874871 656.15958567 -1.96152782 656.13536358 C-3.70020732 656.15249355 -3.70020732 656.15249355 -5.47401166 656.16996959 C-14.15158548 656.06748271 -20.63630745 653.90235167 -27.35205173 648.32758331 C-27.9514658 647.62246613 -28.55087986 646.91734894 -29.16845798 646.19086456 C-29.78591892 645.49348175 -30.40337986 644.79609894 -31.03955173 644.07758331 C-35.53896558 637.22974562 -36.16753446 630.99275018 -36.11127472 623.02031898 C-36.11593464 621.98417625 -36.12059456 620.94803351 -36.12539569 619.88049251 C-36.13735952 616.40375311 -36.12794458 612.92740347 -36.11863804 609.45066071 C-36.12281033 606.93475255 -36.12828727 604.41884627 -36.13495785 601.90294349 C-36.1464186 596.4303588 -36.14853735 590.95789304 -36.14240742 585.48530197 C-36.13331627 577.34728372 -36.14134845 569.20934475 -36.15269866 561.07133258 C-36.17237043 546.53623312 -36.17471199 532.00116931 -36.16950346 517.46605972 C-36.16494718 504.74493751 -36.16554434 492.02382942 -36.1713438 479.30270767 C-36.17210067 477.59664787 -36.17285665 475.89058806 -36.17361175 474.18452825 C-36.17475694 471.61368082 -36.17590681 469.04283339 -36.17707099 466.47198597 C-36.18777696 442.56867755 -36.19250026 418.66537384 -36.18460083 394.76206398 C-36.18430366 393.86089953 -36.18400648 392.95973509 -36.1837003 392.03126263 C-36.18125134 384.71306649 -36.17863977 377.39487041 -36.17601617 370.07667433 C-36.1659137 341.53056827 -36.17426876 312.98452102 -36.19751072 284.43842316 C-36.2235794 252.36860379 -36.23643229 220.29881984 -36.22932297 188.22898948 C-36.2286069 184.80987732 -36.22793252 181.39076516 -36.22728252 177.97165298 C-36.22711272 177.12977742 -36.22694291 176.28790186 -36.22676795 175.42051492 C-36.2244644 162.70888186 -36.23244462 149.99728167 -36.245574 137.28565598 C-36.2604781 122.82997778 -36.261338 108.37437665 -36.24350309 93.91870011 C-36.23393326 85.82895711 -36.23538881 77.73939379 -36.25273778 69.64966275 C-36.26445016 63.61017023 -36.25526478 57.57090018 -36.2379154 51.5314133 C-36.23413771 49.08734614 -36.23712793 46.64325731 -36.24752706 44.19920935 C-36.26065279 40.8785059 -36.24915177 37.55875472 -36.23152924 34.23809242 C-36.24117975 33.28799862 -36.25083026 32.33790482 -36.26077321 31.35902029 C-36.17652315 23.63317794 -34.24942297 17.02137596 -29.72314548 10.69867706 C-29.02447361 10.01547394 -28.32580173 9.33227081 -27.60595798 8.62836456 C-26.92275486 7.92969269 -26.23955173 7.23102081 -25.53564548 6.51117706 C-17.53792279 0.78578783 -9.6144382 -0.07794216 0 0 Z M-3.73095798 34.50336456 C-3.83103063 37.60648271 -3.86453854 40.68741231 -3.85679913 43.79101562 C-3.85825257 44.78294523 -3.85970601 45.77487483 -3.86120349 46.7968629 C-3.86489164 50.16515016 -3.86136414 53.53339296 -3.85794163 56.90167999 C-3.85909234 59.32308841 -3.86067952 61.74449665 -3.86266887 64.16590452 C-3.8659893 69.4534339 -3.86616328 74.7409498 -3.86362171 80.02847862 C-3.85985263 87.89097678 -3.86176597 95.75346628 -3.86483002 103.61596437 C-3.8701071 117.65511317 -3.86963487 131.69425744 -3.86675111 145.73340668 C-3.8642398 158.01898537 -3.86357686 170.3045624 -3.86477375 182.5901413 C-3.86485014 183.40371299 -3.86492652 184.21728469 -3.86500522 185.05551007 C-3.86531654 188.35770559 -3.86563493 191.6599011 -3.86596498 194.96209661 C-3.86902694 225.96642686 -3.86624584 256.9707542 -3.86086809 287.975084 C-3.85612216 315.54652413 -3.85654677 343.11795963 -3.86132908 370.68939972 C-3.86667872 401.63546777 -3.86880983 432.58153327 -3.86571681 463.52760172 C-3.86539608 466.82393042 -3.86508324 470.12025913 -3.86477375 473.41658783 C-3.86469467 474.22828324 -3.8646156 475.03997865 -3.86453412 475.87627089 C-3.86339459 488.15691231 -3.86473076 500.43755189 -3.8672533 512.71819305 C-3.87010595 526.67581195 -3.86941191 540.63342559 -3.86397256 554.59104383 C-3.86102577 562.41152566 -3.86085965 570.2319961 -3.86461873 578.05247765 C-3.86711016 583.87580698 -3.86442842 589.69912614 -3.85964416 595.52245432 C-3.8585188 597.89052867 -3.85911375 600.25860453 -3.86151995 602.62667793 C-3.86452087 605.82304559 -3.86148265 609.0193493 -3.85679913 612.2157135 C-3.85914029 613.15455141 -3.86148146 614.09338933 -3.86389357 615.06067687 C-4.26196644 619.10270526 -4.26196644 619.10270526 -2.73095798 622.50336456 C-1.15741592 622.60079457 0.42052205 622.62783758 1.99707752 622.62756306 C3.02851837 622.62981035 4.05995921 622.63205765 5.12265584 622.63437304 C6.27194885 622.63174603 7.42124186 622.62911901 8.60536194 622.62641239 C9.81876809 622.62756624 11.03217424 622.62872008 12.28235027 622.62990889 C15.68080675 622.63211505 19.07920769 622.62978637 22.47765893 622.62563076 C26.16336093 622.62221348 29.84905974 622.6245641 33.53476232 622.62620825 C40.00444272 622.62828795 46.47411396 622.62662808 52.9437933 622.62257004 C62.56407649 622.61655251 72.18435385 622.6162326 81.80463858 622.61711203 C97.98490903 622.61842817 114.16517541 622.61507604 130.34544468 622.60909462 C146.37383005 622.60318448 162.40221372 622.59933007 178.43060017 622.59824181 C179.42592841 622.59817307 180.42125666 622.59810433 181.44674637 622.5980335 C186.50118966 622.59769519 191.55563295 622.5973938 196.61007624 622.59710663 C232.44244424 622.59500431 268.27481003 622.58826165 304.10717678 622.57880402 C338.92521052 622.56962469 373.74324364 622.56255548 408.56127834 622.5582962 C410.74945933 622.55802556 412.93764031 622.55775486 415.12582129 622.55748409 C432.90473343 622.55529543 450.68364558 622.55325281 468.46255774 622.55124561 C550.73138793 622.54185226 633.00021234 622.52178342 715.26904202 622.50336456 C715.26904202 428.13336456 715.26904202 233.76336456 715.26904202 33.50336456 C590.60838307 33.47467012 590.60838307 33.47467012 465.94772351 33.4551996 C447.91214672 33.45315828 429.87656993 33.4510703 411.84099316 33.44883857 C409.65930772 33.44856873 407.47762227 33.44830036 405.29593683 33.44803347 C370.48306738 33.44376264 335.67019955 33.43625589 300.85733108 33.42706734 C265.0936998 33.41764494 229.33006942 33.41148149 193.56643692 33.40944957 C188.521158 33.4091614 183.47587908 33.40883576 178.43060017 33.40848732 C177.43756554 33.4084199 176.44453092 33.40835247 175.42140434 33.40828301 C159.40243536 33.40709887 143.38346913 33.40245432 127.36450127 33.39653253 C111.28054471 33.39065995 95.1965909 33.38839289 79.1126333 33.38986319 C69.54361176 33.3906268 59.97460026 33.38856909 50.40558053 33.38256702 C44.02586384 33.37883692 37.64615377 33.37868684 31.26643663 33.38153275 C27.62344724 33.38305283 23.9804769 33.38293601 20.33748949 33.37848138 C16.42677152 33.37373534 12.51608156 33.37659798 8.60536194 33.38031673 C6.88142242 33.37637621 6.88142242 33.37637621 5.12265584 33.37235609 C4.091215 33.37460338 3.05977415 33.37685067 1.99707752 33.37916607 C1.1012808 33.37901009 0.20548407 33.37885411 -0.71745801 33.3786934 C-2.72846204 33.28018312 -2.72846204 33.28018312 -3.73095798 34.50336456 Z " fill="#ffffff" transform="translate(155.73095798492432,164.49663543701172)"/>
<path d="M0 0 C5.50474136 5.71160012 7.3325518 10.64175532 7.20703125 18.50390625 C6.7664881 23.81536048 4.40313044 26.82145437 0.5625 30.25 C-4.33435234 34.32523282 -8.06497544 35.46712561 -14.40625 35.30859375 C-21.28743586 34.48989844 -25.59554582 30.91444122 -29.87109375 25.68359375 C-32.98183425 21.04439253 -32.63564897 15.34091265 -32 10 C-29.78939626 4.10175236 -25.54641386 -0.10891626 -20 -3 C-12.73375654 -5.19677128 -6.29958337 -4.12731324 0 0 Z " fill="#ffffff" transform="translate(748,241)"/>
<path d="M0 0 C4.66917048 3.9263479 8.42856123 7.66074481 8.98828125 14.01953125 C9.138599 20.30914241 9.2306707 24.47809214 4.75 29.3125 C0.31477671 33.55488749 -3.3346748 36.14112213 -9.5703125 36.4140625 C-16.22848196 36.14936463 -20.66773091 34.1692829 -25.25 29.3125 C-28.64189024 24.75165324 -29.92585856 20.21243215 -29.6328125 14.546875 C-28.73153874 9.2863792 -26.36516935 5.03874107 -22.4375 1.4375 C-15.2069013 -3.38289913 -7.69114714 -3.99348025 0 0 Z " fill="#ffffff" transform="translate(813.25,239.6875)"/>
<path d="M0 0 C1.08570786 -0.0004985 2.17141571 -0.00099701 3.2900238 -0.00151062 C5.55966037 0.00080996 7.82930051 0.0104175 10.09887695 0.02709961 C13.58112298 0.05093546 17.06261364 0.04761507 20.54492188 0.04101562 C22.75911916 0.04658554 24.97331323 0.05369108 27.1875 0.0625 C28.22806046 0.06158859 29.26862091 0.06067719 30.3407135 0.05973816 C31.30279221 0.06927017 32.26487091 0.07880219 33.25610352 0.08862305 C34.10149185 0.09323044 34.94688019 0.09783783 35.81788635 0.10258484 C37.99609375 0.36328125 37.99609375 0.36328125 40.99609375 2.36328125 C42.78306158 11.25719747 44.40960777 25.2457827 39.99609375 33.36328125 C38.6800415 33.37786377 37.36398926 33.39244629 36.00805664 33.4074707 C31.09323898 33.46574424 26.1788656 33.54297448 21.2644043 33.62573242 C19.14338428 33.6588456 17.02227902 33.68691925 14.90112305 33.7097168 C11.83996491 33.74351394 8.77957837 33.79584174 5.71875 33.8515625 C4.31194725 33.86114738 4.31194725 33.86114738 2.87672424 33.8709259 C-3.26155292 34.00589006 -8.2973772 35.13512049 -14.00390625 37.36328125 C-15.48890625 37.85828125 -15.48890625 37.85828125 -17.00390625 38.36328125 C-18.17344041 40.78711202 -18.17344041 40.78711202 -19.00390625 43.36328125 C-19.49890625 44.35328125 -19.49890625 44.35328125 -20.00390625 45.36328125 C-20.10320151 47.2792305 -20.13735072 49.19867244 -20.14193726 51.1171875 C-20.14739059 52.34236588 -20.15284393 53.56754425 -20.15846252 54.82984924 C-20.1595824 56.19515986 -20.16063291 57.56047053 -20.16162109 58.92578125 C-20.16628852 60.35811011 -20.17143197 61.79043749 -20.17701721 63.22276306 C-20.18830945 66.31280377 -20.19673845 69.40283476 -20.20313644 72.4928894 C-20.21381474 77.38535147 -20.23406177 82.27774432 -20.2562561 87.17016602 C-20.31817751 101.08460295 -20.37210984 114.99903689 -20.40527344 128.91357422 C-20.42366027 136.59441352 -20.45265178 144.27513785 -20.49327815 151.95589256 C-20.51428956 156.01839436 -20.52979696 160.08075157 -20.53208542 164.14331055 C-20.53424423 167.97159739 -20.55023816 171.79958384 -20.57647514 175.62777901 C-20.58362438 177.02648826 -20.58579054 178.42523409 -20.58237267 179.82395744 C-20.54964431 195.77594531 -24.25120775 205.66820776 -35.42651367 216.98144531 C-38.25971976 219.80296004 -41.12377417 222.5896746 -44.00390625 225.36328125 C-42.29365159 229.02763076 -40.24392701 231.29784015 -37.31640625 234.11328125 C-27.21697389 244.02298439 -21.05285186 250.75456556 -20.87260437 265.25184631 C-20.86418433 267.62239366 -20.86103186 269.99296332 -20.86206055 272.36352539 C-20.85672742 274.35646996 -20.85138831 276.34941453 -20.84582388 278.34235847 C-20.84064492 280.47365735 -20.83771934 282.60495012 -20.83524132 284.73625374 C-20.82930386 289.18695533 -20.81273969 293.63757814 -20.79389954 298.08824158 C-20.78756334 299.61504074 -20.7812377 301.14183994 -20.77492237 302.66863918 C-20.77175656 303.43289648 -20.76859075 304.19715378 -20.765329 304.98457038 C-20.72331968 315.33776316 -20.69025756 325.690917 -20.67797852 336.04418945 C-20.66959585 343.04056736 -20.64710442 350.03674762 -20.60862285 357.03302664 C-20.58888199 360.73096553 -20.57645129 364.42860912 -20.58145714 368.12660408 C-20.58697034 372.24882213 -20.56169399 376.37030332 -20.53393555 380.49243164 C-20.54053696 381.71286163 -20.54713837 382.93329163 -20.55393982 384.19070435 C-20.48370505 390.53177529 -20.34236675 394.578031 -16.00390625 399.36328125 C-11.39336498 403.51068812 -5.76442269 402.78661671 0.09765625 402.76953125 C1.70778091 402.78578552 1.70778091 402.78578552 3.35043335 402.80236816 C7.93670316 402.84823545 12.52291669 402.85974569 17.109375 402.87451172 C20.45984273 402.89016368 23.80983147 402.92314919 27.16015625 402.95703125 C28.20080231 402.95401001 29.24144836 402.95098877 30.31362915 402.94787598 C31.76060684 402.9630426 31.76060684 402.9630426 33.23681641 402.97851562 C34.08555328 402.98057007 34.93429016 402.98262451 35.80874634 402.98474121 C38.50070941 403.4506095 39.38798818 404.18343595 40.99609375 406.36328125 C41.3684082 409.33422852 41.3684082 409.33422852 41.359375 412.9296875 C41.3584082 414.86424805 41.3584082 414.86424805 41.35742188 416.83789062 C41.34912354 417.50844482 41.3408252 418.17899902 41.33227539 418.86987305 C41.30863604 420.92211013 41.31172227 422.97305158 41.31835938 425.02539062 C41.26294093 435.09643407 41.26294093 435.09643407 38.99609375 437.36328125 C36.74832153 437.63070679 36.74832153 437.63070679 33.91064453 437.65380859 C32.84838654 437.6665683 31.78612854 437.679328 30.69168091 437.69247437 C29.53659027 437.69470001 28.38149963 437.69692566 27.19140625 437.69921875 C26.00191376 437.70587555 24.81242126 437.71253235 23.58688354 437.71939087 C21.05989124 437.72953844 18.53287203 437.73420724 16.00585938 437.73388672 C12.1714114 437.73822433 8.33814764 437.77442461 4.50390625 437.8125 C2.04557683 437.81837508 -0.41275803 437.82233984 -2.87109375 437.82421875 C-4.00594208 437.83858978 -5.14079041 437.85296082 -6.31002808 437.86776733 C-18.68103201 437.79817197 -28.45668492 434.1981414 -38.00390625 426.36328125 C-38.71417969 425.78964844 -39.42445313 425.21601562 -40.15625 424.625 C-48.66383964 416.99919508 -54.42256795 405.00244211 -55.19015312 393.59550095 C-55.26799731 390.29838558 -55.28235479 387.00653084 -55.27514648 383.70849609 C-55.2829866 381.83388451 -55.2829866 381.83388451 -55.29098511 379.92140198 C-55.30119863 377.21770075 -55.30794007 374.51425305 -55.3088665 371.81055832 C-55.31081754 367.53196932 -55.32892509 363.25353998 -55.34962463 358.9750061 C-55.39866301 348.35286855 -55.42970772 337.7306881 -55.45092773 327.10845947 C-55.46746327 318.84146288 -55.49029222 310.57460466 -55.53394848 302.30770075 C-55.55568243 298.05760105 -55.56378685 293.80776457 -55.56155574 289.55761313 C-55.56361767 286.29144424 -55.58498089 283.02538955 -55.60327148 279.75927734 C-55.59869431 278.58717209 -55.59411713 277.41506683 -55.58940125 276.20744324 C-55.65937861 268.35869242 -56.82510759 263.25486719 -62.41015625 257.48046875 C-63.06685303 256.79404297 -63.7235498 256.10761719 -64.40014648 255.40039062 C-65.09438721 254.68689453 -65.78862793 253.97339844 -66.50390625 253.23828125 C-67.56943726 252.11776367 -67.56943726 252.11776367 -68.65649414 250.97460938 C-71.88801283 247.57646493 -75.14554484 244.21085746 -78.46875 240.90234375 C-86.53626796 232.75305177 -86.53626796 232.75305177 -87.62890625 227.61328125 C-87.51819089 223.17675853 -85.61881558 220.79743399 -82.56640625 217.7265625 C-81.72078125 216.94667969 -80.87515625 216.16679687 -80.00390625 215.36328125 C-78.81599907 214.25303967 -77.62853666 213.14232211 -76.44140625 212.03125 C-74.46600383 210.18878112 -72.48837373 208.34891742 -70.50512695 206.51489258 C-60.03666198 197.26594905 -60.03666198 197.26594905 -55.75336647 184.3967886 C-55.75303099 183.34992414 -55.7526955 182.30305967 -55.75234985 181.22447205 C-55.74696701 180.0149588 -55.74158417 178.80544556 -55.73603821 177.5592804 C-55.7401622 176.24541855 -55.74428619 174.9315567 -55.74853516 173.57788086 C-55.74578273 172.16953326 -55.74210131 170.76118722 -55.73756409 169.35284424 C-55.72946952 166.32615498 -55.72727932 163.29953952 -55.72951126 160.2728405 C-55.73235418 155.47582392 -55.7179539 150.67895347 -55.70053101 145.88197327 C-55.65360378 132.24303392 -55.6295835 118.60410441 -55.62304688 104.96508789 C-55.61928195 97.42737584 -55.60113615 89.8898293 -55.56795251 82.35218817 C-55.54786292 77.59550777 -55.54530706 72.83925789 -55.55623269 68.08255279 C-55.5588624 65.10564249 -55.54472626 62.12897647 -55.52615166 59.15213013 C-55.51839651 57.14008803 -55.53017987 55.12799932 -55.54283142 53.11598206 C-55.40635112 37.89540507 -50.6792271 25.33787514 -40.31640625 14.11328125 C-28.81387243 3.31995953 -15.42256596 -0.13893382 0 0 Z " fill="#ffffff" transform="translate(276.00390625,275.63671875)"/>
<path d="M0 0 C0.84525742 -0.0127597 1.69051483 -0.02551941 2.56138611 -0.03866577 C3.93781029 -0.04200424 3.93781029 -0.04200424 5.34204102 -0.04541016 C6.28974869 -0.05206696 7.23745636 -0.05872375 8.21388245 -0.06558228 C10.22720396 -0.07572662 12.24055921 -0.08039875 14.25390625 -0.08007812 C17.30274988 -0.08441126 20.35009826 -0.12059957 23.39868164 -0.15869141 C37.67231893 -0.24218917 48.37877501 1.28160092 59.90844727 10.29052734 C60.52461914 10.76876953 61.14079102 11.24701172 61.77563477 11.73974609 C68.56619717 17.73053114 73.46579146 27.40165136 74.90844727 36.29052734 C74.9977062 37.93099274 75.04145299 39.57438566 75.04647827 41.2172699 C75.05193161 42.18309998 75.05738495 43.14893005 75.06300354 44.14402771 C75.06404587 45.19195999 75.0650882 46.23989227 75.06616211 47.31958008 C75.07124283 48.43233307 75.07632355 49.54508606 75.08155823 50.69155884 C75.09224941 53.10547031 75.10087449 55.51939162 75.10767746 57.93331718 C75.11947636 61.75377951 75.13893086 65.5741293 75.16079712 69.39454651 C75.22238804 80.25607843 75.27673489 91.1175901 75.30981445 101.97924805 C75.33014138 108.62460775 75.36603574 115.26977754 75.41057205 121.91502571 C75.42473978 124.44713979 75.43345622 126.97929045 75.43662643 129.51144218 C75.4415293 133.05187551 75.46467123 136.59175841 75.49194336 140.13208008 C75.48893723 141.17798813 75.48593109 142.22389618 75.48283386 143.30149841 C75.64214733 157.21289793 85.34472737 164.90181601 94.69750977 174.18896484 C97.45771858 176.81262623 100.33265694 179.27397162 103.27954102 181.68505859 C106.01889243 184.38499488 106.81994504 186.77918116 107.47094727 190.54052734 C106.09613533 199.70594024 94.83442491 207.39254229 88.40454102 213.57958984 C81.10525673 220.74347425 76.27382045 226.4971039 75.78095531 237.00993538 C75.77969804 237.94010916 75.77844076 238.87028294 75.77714539 239.8286438 C75.77313721 240.90497574 75.76912903 241.98130768 75.76499939 243.09025574 C75.76552811 244.25607681 75.76605682 245.42189789 75.76660156 246.62304688 C75.76138992 248.48276375 75.76138992 248.48276375 75.756073 250.38005066 C75.74872874 253.06951539 75.74304935 255.75893099 75.73978233 258.44839859 C75.73384216 262.71164191 75.71727216 266.97480307 75.69844055 271.23800659 C75.69210376 272.70151706 75.68577812 274.16502757 75.67946339 275.62853813 C75.67629758 276.36131847 75.67313176 277.09409881 75.66987002 277.84908462 C75.62791431 287.76607439 75.5948444 297.68302503 75.58251953 307.60009766 C75.57410739 314.3002463 75.55150166 321.00019007 75.51316386 327.7002362 C75.49351004 331.23853468 75.48096274 334.77652769 75.48599815 338.31488419 C75.49155936 342.2706688 75.46610035 346.22594224 75.43847656 350.18164062 C75.44837868 351.91215416 75.44837868 351.91215416 75.45848083 353.67762756 C75.31259511 366.46990801 71.42332107 376.7315153 62.90844727 386.29052734 C54.49538161 394.46640873 44.15601896 400.39031632 32.25366211 400.43579102 C30.55202408 400.44536079 30.55202408 400.44536079 28.81600952 400.4551239 C26.98618027 400.45679314 26.98618027 400.45679314 25.11938477 400.45849609 C23.86461334 400.46182449 22.60984192 400.46515289 21.31704712 400.46858215 C18.66583707 400.4736438 16.01472958 400.47642334 13.36352539 400.47583008 C9.962629 400.47572814 6.56193989 400.48941939 3.16109276 400.50660229 C-0.08196896 400.52036914 -3.32502823 400.51980996 -6.56811523 400.52099609 C-7.79204987 400.52818161 -9.0159845 400.53536713 -10.27700806 400.54277039 C-11.40512909 400.53969376 -12.53325012 400.53661713 -13.69555664 400.53344727 C-14.69164948 400.53487228 -15.68774231 400.5362973 -16.71401978 400.5377655 C-19.09155273 400.29052734 -19.09155273 400.29052734 -21.09155273 398.29052734 C-21.48955811 394.17285217 -21.4205999 390.04964072 -21.40722656 385.91430664 C-21.40406969 383.86404121 -21.42751033 381.8152233 -21.45288086 379.76513672 C-21.45352539 378.47542969 -21.45416992 377.18572266 -21.45483398 375.85693359 C-21.45781494 374.67043213 -21.4607959 373.48393066 -21.46386719 372.26147461 C-21.09155273 369.29052734 -21.09155273 369.29052734 -19.86474609 367.62889099 C-17.5635297 365.89198828 -16.21525659 365.91272657 -13.34814453 365.90576172 C-12.38672043 365.89565063 -11.42529633 365.88553955 -10.43473816 365.87512207 C-9.39722916 365.87814331 -8.35972015 365.88116455 -7.29077148 365.88427734 C-5.68707451 365.86802307 -5.68707451 365.86802307 -4.05097961 365.85144043 C-0.62694273 365.81710971 2.79676074 365.80157543 6.22094727 365.79052734 C10.71736163 365.77595226 15.21303199 365.74222654 19.70922852 365.69677734 C20.74066483 365.69979858 21.77210114 365.70281982 22.83479309 365.70593262 C28.2713225 365.64931473 32.2312032 365.39070975 36.90844727 362.29052734 C40.41465309 358.42161057 41.0329409 355.05879358 41.04647827 349.94786072 C41.05193161 348.83910583 41.05738495 347.73035095 41.06300354 346.58799744 C41.06404587 345.37084549 41.0650882 344.15369354 41.06616211 342.8996582 C41.07396159 340.93225653 41.08176511 338.96485486 41.08972001 336.99745381 C41.09743536 334.8809479 41.10281736 332.76444633 41.10767746 330.64793205 C41.11837103 326.23005591 41.1386219 321.81225601 41.16079712 317.39442444 C41.22266796 304.83093785 41.27664651 292.26745497 41.30981445 279.70385742 C41.32821049 272.76609285 41.35721217 265.82845537 41.39781916 258.89078432 C41.41881303 255.22288736 41.43433547 251.55515006 41.43662643 247.88718987 C41.43919022 243.78700242 41.46473745 239.68725629 41.49194336 235.5871582 C41.48893723 234.38417587 41.48593109 233.18119354 41.48283386 231.9417572 C41.57152858 222.91881109 42.46024813 214.31342634 48.53344727 207.22802734 C49.22954102 206.41076172 49.92563477 205.59349609 50.64282227 204.75146484 C53.67108005 201.46215035 56.80037109 198.29671197 60.02563477 195.20068359 C62.08233077 193.23449776 62.08233077 193.23449776 63.90844727 190.29052734 C64.56844727 190.29052734 65.22844727 190.29052734 65.90844727 190.29052734 C65.90844727 189.63052734 65.90844727 188.97052734 65.90844727 188.29052734 C65.33626465 188.04214111 64.76408203 187.79375488 64.17456055 187.5378418 C59.70603541 185.07827544 56.35755159 181.06624741 52.78344727 177.47802734 C51.95973633 176.67042969 51.13602539 175.86283203 50.28735352 175.03076172 C49.49973633 174.24378906 48.71211914 173.45681641 47.90063477 172.64599609 C47.18246582 171.93080811 46.46429687 171.21562012 45.72436523 170.47875977 C42.53502548 166.63551532 41.65875443 163.02668642 41.65689087 158.09803772 C41.65150803 157.07330856 41.64612518 156.04857941 41.64057922 154.99279785 C41.64470322 153.8794104 41.64882721 152.76602295 41.65307617 151.61889648 C41.64945572 150.4378685 41.64583527 149.25684052 41.6421051 148.0400238 C41.63341736 144.80857841 41.63319392 141.57724944 41.63545656 138.34579778 C41.63470741 134.95863973 41.61963456 131.57155518 41.60507202 128.18443298 C41.55810777 116.65382476 41.53410489 105.12322896 41.52758789 93.5925293 C41.52383397 87.21950156 41.50578009 80.84667057 41.47249353 74.47372717 C41.45561342 71.10437291 41.44644619 67.73537648 41.45543289 64.36598396 C41.46248992 60.60753772 41.4452479 56.8499206 41.42260742 53.09155273 C41.43077988 51.98018951 41.43895233 50.86882629 41.44737244 49.7237854 C41.38190574 43.62078797 41.05206064 39.9054266 36.90844727 35.29052734 C32.77286742 32.78230563 28.32662717 32.97968972 23.61547852 32.94677734 C22.82823898 32.93215454 22.04099945 32.91753174 21.22990417 32.90246582 C17.87527265 32.84037808 14.52046486 32.80045734 11.16552734 32.75878906 C8.71114542 32.72513818 6.25715975 32.68003003 3.80297852 32.63427734 C3.0415303 32.62900024 2.28008209 32.62372314 1.49555969 32.61828613 C-3.86588681 32.51619327 -3.86588681 32.51619327 -6.09155273 30.29052734 C-6.3503418 27.52490234 -6.3503418 27.52490234 -6.35717773 24.04052734 C-6.36104492 22.16880859 -6.36104492 22.16880859 -6.36499023 20.25927734 C-6.35725586 18.94958984 -6.34952148 17.63990234 -6.34155273 16.29052734 C-6.34928711 14.98083984 -6.35702148 13.67115234 -6.36499023 12.32177734 C-6.36241211 11.07396484 -6.35983398 9.82615234 -6.35717773 8.54052734 C-6.35492187 7.39068359 -6.35266602 6.24083984 -6.3503418 5.05615234 C-5.92965645 0.56037537 -4.0949054 0.04195753 0 0 Z " fill="#ffffff" transform="translate(728.091552734375,312.70947265625)"/>
<path d="M0 0 C0.69319336 0.34933594 1.38638672 0.69867188 2.10058594 1.05859375 C11.64102234 5.95204446 20.09214749 11.72350198 28.31201172 18.59277344 C29.99802469 19.99835324 31.70196896 21.37930977 33.41015625 22.7578125 C65.88269975 49.22251103 84.37707426 88.5274956 89.3190918 129.65551758 C93.64211528 172.70254041 84.62574489 218.49818288 57.3828125 253.09765625 C56.20332031 254.53431641 56.20332031 254.53431641 55 256 C54.56397461 256.53608887 54.12794922 257.07217773 53.67871094 257.62451172 C25.39911786 292.28560501 -13.89435455 314.2127833 -58.63769531 318.82128906 C-104.30161347 322.2758145 -148.25649977 307.65981925 -183 278 C-213.82850541 250.86176109 -233.61632691 209.16299594 -237.75390625 168.59765625 C-240.72936469 121.78595662 -229.90042338 76.14911244 -198.58203125 40.2265625 C-197.06976736 38.53951434 -195.54565581 36.86298302 -194.0078125 35.19921875 C-192.29852598 33.32698468 -190.70856551 31.41469465 -189.125 29.4375 C-185.00831383 24.62345169 -179.99765367 20.85262163 -175 17 C-173.98164063 16.20464844 -172.96328125 15.40929687 -171.9140625 14.58984375 C-123.12217636 -22.47457195 -54.39176679 -27.51079636 0 0 Z M-63 12 C-63 29.82 -63 47.64 -63 66 C-49.47 66 -35.94 66 -22 66 C-20.72315594 64.02315103 -20.72315594 64.02315103 -21.66162109 61.86791992 C-30.07998136 41.89788349 -38.89246352 22.52347542 -59.62890625 12.9609375 C-61.72806126 11.9374002 -61.72806126 11.9374002 -63 12 Z M-104.55859375 23.375 C-115.83460302 35.49896517 -122.29759684 50.32532281 -127 66 C-113.14 66 -99.28 66 -85 66 C-85 48.18 -85 30.36 -85 12 C-92.29540963 12 -99.59163251 18.64900245 -104.55859375 23.375 Z M-132 20 C-152.27424857 28.56084222 -173.23765635 45.31766835 -185 64 C-185 64.66 -185 65.32 -185 66 C-173.78 66 -162.56 66 -151 66 C-149.39125 61.91625 -147.7825 57.8325 -146.125 53.625 C-141.55870971 42.23169524 -136.33768203 31.51697777 -130 21 C-130.66 20.67 -131.32 20.34 -132 20 Z M-17 21 C-16.5153125 21.93457031 -16.030625 22.86914062 -15.53125 23.83203125 C-8.49668958 37.55757084 -2.72707706 51.68230734 3 66 C14.22 66 25.44 66 37 66 C27.0834806 46.1669612 4.79175156 30.20612057 -15 21 C-15.66 21 -16.32 21 -17 21 Z M-200 90 C-202.57499478 95.79373826 -204.88361902 101.165729 -206.625 107.1875 C-206.83664795 107.91582031 -207.0482959 108.64414062 -207.26635742 109.39453125 C-210.04233837 119.30304623 -211 128.69799401 -211 139 C-194.83 139 -178.66 139 -162 139 C-161.09959989 128.86063244 -161.09959989 128.86063244 -160.20556641 118.72070312 C-160.08874512 117.42068359 -159.97192383 116.12066406 -159.8515625 114.78125 C-159.73635254 113.48251953 -159.62114258 112.18378906 -159.50244141 110.84570312 C-158.7806549 103.8845668 -157.86805171 96.94441365 -157 90 C-171.19 90 -185.38 90 -200 90 Z M-134 90 C-137.20923428 103.5134082 -137.20923428 103.5134082 -139.23046875 117.14453125 C-139.30533005 117.912314 -139.38019135 118.68009674 -139.45732117 119.47114563 C-140.37170392 129.85514149 -140.34799466 140.27150564 -140.3125 150.6875 C-140.31134186 151.74183228 -140.31018372 152.79616455 -140.30899048 153.88244629 C-140.26599177 173.67086525 -138.82439121 191.70243516 -134 211 C-117.83 211 -101.66 211 -85 211 C-85 171.07 -85 131.14 -85 90 C-101.17 90 -117.34 90 -134 90 Z M-63 90 C-63 129.93 -63 169.86 -63 211 C-46.83 211 -30.66 211 -14 211 C-12.05495653 203.86817396 -10.38638865 197.24062329 -9.375 190 C-9.19324219 188.78183594 -9.19324219 188.78183594 -9.0078125 187.5390625 C-7.28563328 175.67100133 -6.76207289 163.91552764 -6.75 151.9375 C-6.74866058 151.14953033 -6.74732117 150.36156067 -6.74594116 149.54971313 C-6.21710868 119.0135519 -6.21710868 119.0135519 -14 90 C-30.17 90 -46.34 90 -63 90 Z M9 90 C9.72436775 98.31854288 9.72436775 98.31854288 10.71875 106.578125 C10.84636719 107.51269531 10.97398437 108.44726562 11.10546875 109.41015625 C11.36636012 111.28805749 11.62934625 113.16566902 11.89453125 115.04296875 C12.98382281 123.06411571 13.45720369 130.85805534 14 139 C30.17 139 46.34 139 63 139 C63 122.47878409 59.46219176 104.92438352 52 90 C37.81 90 23.62 90 9 90 Z M-211 163 C-211 169.80591691 -210.7081896 175.03624492 -209.375 181.5 C-209.20186279 182.3564209 -209.02872559 183.2128418 -208.8503418 184.09521484 C-206.89933195 193.23251451 -204.19335352 202.61329296 -200 211 C-185.81 211 -171.62 211 -157 211 C-157.5905647 205.68491772 -158.19047573 200.41711269 -158.9375 195.12890625 C-159.11023438 193.89462891 -159.28296875 192.66035156 -159.4609375 191.38867188 C-159.81977287 188.84172079 -160.17914627 186.29484545 -160.5390625 183.74804688 C-160.71179688 182.51248047 -160.88453125 181.27691406 -161.0625 180.00390625 C-161.21847656 178.89861572 -161.37445313 177.7933252 -161.53515625 176.65454102 C-162.11275966 172.11349823 -162.5445088 167.55491197 -163 163 C-178.84 163 -194.68 163 -211 163 Z M15 163 C13.81096558 173.5579743 13.81096558 173.5579743 12.63745117 184.11767578 C12.48150128 185.47695057 12.32503788 186.83616659 12.16796875 188.1953125 C12.09694946 188.85781006 12.02593018 189.52030762 11.95275879 190.20288086 C11.11815271 197.31137925 9.5237645 203.88909901 8 211 C22.52 211 37.04 211 52 211 C56.74510092 198.78154853 56.74510092 198.78154853 60.3125 186.4375 C60.61800781 185.17808594 60.92351562 183.91867187 61.23828125 182.62109375 C62.30628822 176.14185148 62.56319128 169.55213075 63 163 C47.16 163 31.32 163 15 163 Z M-186 234 C-176.75638815 252.4872237 -154.44392858 271.2907991 -134.75 277.9375 C-133.5125 278.288125 -132.275 278.63875 -131 279 C-131.72703125 277.70642578 -131.72703125 277.70642578 -132.46875 276.38671875 C-136.46029284 269.1633527 -140.05848258 261.86341668 -143.25 254.25 C-143.56646484 253.49549561 -143.88292969 252.74099121 -144.20898438 251.96362305 C-146.65546583 246.02757175 -148.80130768 240.04640388 -151 234 C-162.55 234 -174.1 234 -186 234 Z M-127 234 C-121.34758229 252.84139236 -112.43322366 275.00495812 -94 285 C-91.03 285.99 -88.06 286.98 -85 288 C-85 270.18 -85 252.36 -85 234 C-98.86 234 -112.72 234 -127 234 Z M-63 234 C-63 251.82 -63 269.64 -63 288 C-56.07612577 285.40354716 -52.34240444 283.57026005 -47 279 C-46.34 278.43539062 -45.68 277.87078125 -45 277.2890625 C-33.62140321 266.75497094 -25.9334069 250.56806037 -21 236 C-21 235.34 -21 234.68 -21 234 C-34.86 234 -48.72 234 -63 234 Z M3 234 C1.68 237.3 0.36 240.6 -1 244 C-3.88536887 251.11220434 -6.87390697 258.13606478 -10.3125 265 C-10.78139648 265.93972656 -10.78139648 265.93972656 -11.25976562 266.8984375 C-13.25925569 270.80362493 -15.51231259 274.39752111 -18 278 C-17.67 278.66 -17.34 279.32 -17 280 C3.49726288 269.07742227 25.05978078 256.00979586 38 236 C38 235.34 38 234.68 38 234 C26.45 234 14.9 234 3 234 Z " fill="#ffffff" transform="translate(586,352)"/>
</svg>
